<svg width="93" height="23" viewBox="0 0 93 23" fill="none" xmlns="http://www.w3.org/2000/svg">
<path d="M3.07305 11.0258C3.07305 12.214 3.34237 13.3546 3.81765 14.3686L11.2954 2.99358C6.76438 2.99358 3.08889 6.58984 3.08889 11.0258H3.07305Z" fill="#CF043C"/>
<path d="M6.33734 17.4581C7.71564 18.472 9.42664 19.074 11.2802 19.074C13.1338 19.074 14.8448 18.472 16.239 17.4581L11.2802 10.123L6.33734 17.4422V17.4581Z" fill="#CF043C"/>
<path d="M11.2801 2.99358L18.7736 14.3686C19.2489 13.3546 19.5182 12.214 19.5182 11.0258C19.5182 6.58984 15.8269 2.99358 11.2801 2.99358Z" fill="#CF043C"/>
<path d="M3.81765 14.3686C4.38798 15.5884 5.25962 16.6498 6.35276 17.4577L11.2957 10.1385L16.2544 17.4736C17.3475 16.6656 18.2189 15.62 18.7892 14.3843L11.2957 3.0093L3.81795 14.3843L3.81765 14.3686Z" fill="white"/>
<path d="M11.2799 0C5.06963 0 0 4.94289 0 11.0264C0 17.11 5.05379 22.0688 11.2799 22.0688C17.5061 22.0688 22.5757 17.1259 22.5757 11.0264C22.5757 4.92705 17.4902 0 11.2799 0ZM18.7736 14.3686C18.2033 15.5884 17.3321 16.6501 16.239 17.4581C14.8607 18.472 13.1497 19.074 11.2802 19.074C9.4108 19.074 7.71564 18.472 6.33734 17.4581C5.26004 16.6501 4.37256 15.605 3.80223 14.3692C3.32695 13.3553 3.05763 12.2146 3.05763 11.0264C3.05763 6.59052 6.74895 2.99426 11.2641 2.99426C15.7792 2.99426 19.5022 6.59052 19.5022 11.0264C19.5022 15.4624 19.2329 13.3553 18.7576 14.3692L18.7736 14.3686Z" fill="#00437A"/>
<path d="M58.5387 17.6975L60.5824 7.65328H57.3505L55.2592 17.6975H58.5387Z" fill="#00437A"/>
<path d="M36.3275 3.29565C36.1691 3.29565 34.9492 3.32734 34.4422 4.30958C33.9194 5.32351 28.1369 16.2866 27.3923 17.7124H31.3371L33.1907 13.9102H37.4998L37.8325 17.6966H41.6823L39.8921 3.3115H36.3116L36.3275 3.29565ZM34.363 11.2011L36.882 5.86216L37.3573 11.2011H34.363Z" fill="#00437A"/>
<path d="M53.1368 7.57342C52.5506 7.28825 51.9328 7.12982 51.2832 7.12982C50.3168 7.12982 49.3504 7.46251 48.3999 8.09621L48.1781 8.2388L49.3346 3.26422H45.77L43.5996 13.6728C43.5996 13.7045 42.95 16.3027 44.8036 17.3483C45.4373 17.6968 46.2453 17.8711 47.2275 17.8711C48.6851 17.8711 50.0634 17.475 50.507 17.2849L50.602 17.2532C51.4258 16.8889 53.6279 15.9541 54.5468 12.6747C55.6241 8.85666 53.1685 7.5734 53.1527 7.55756L53.1368 7.57342ZM50.602 13.5619C49.9208 14.8293 49.097 15.2096 48.6692 15.3363C48.4949 15.3838 48.3207 15.3996 48.1623 15.3996C47.8296 15.3996 47.5602 15.3046 47.3701 15.1145C47.0216 14.766 47.0533 13.9897 47.1325 13.5777C47.1325 13.5302 47.4018 12.3579 47.6711 11.6291C47.9404 10.9162 48.6217 10.0449 49.3346 9.87059C49.493 9.83891 49.7465 9.77552 49.9841 9.77552C50.7604 9.77552 51.1723 10.2825 51.204 11.2806C51.204 11.3123 51.2832 12.2945 50.6179 13.5302L50.602 13.5619Z" fill="#00437A"/>
<path d="M65.9532 13.5611C66.0641 13.0383 66.7453 9.93311 66.7453 9.93311V9.8539H69.09L69.5495 7.65179H67.1731L68.0286 3.81787H66.9196C65.4304 3.81787 64.6858 4.4199 64.3848 5.84573L64.0046 7.66763H62.4045L61.945 9.86976H63.5451L63.5134 9.99649L62.4361 15.2245C62.4361 15.3038 62.0559 17.0781 64.0996 17.6801C64.0996 17.6801 64.5907 17.8227 65.4304 17.8227C66.2701 17.8227 66.5552 17.7594 67.1414 17.6326L67.6642 15.1929C67.5216 15.2246 67.3157 15.2562 67.078 15.2562C66.8404 15.2562 66.6027 15.2087 66.4285 15.1295C65.9532 14.9077 65.8106 14.3849 65.969 13.5928L65.9532 13.5611Z" fill="#00437A"/>
<path d="M80.9405 7.74657C80.592 7.63567 79.1503 7.20791 77.3601 7.20791C75.5698 7.20791 75.047 7.39803 74.0331 7.74657C70.627 8.9506 69.5813 12.3092 69.4863 13.9093C69.4546 14.6698 69.5021 17.1571 71.9736 17.7116C72.2587 17.7749 72.5598 17.8066 72.8449 17.8066C74.4609 17.8066 75.7124 16.7927 76.2986 15.9055L76.4253 15.7312L76.5046 17.664H79.3721C79.3721 17.4422 79.4038 15.6837 79.6731 13.6558L80.9563 7.73073L80.9405 7.74657ZM77.2333 9.75857C77.2333 9.77441 76.758 12.0399 76.6313 12.5944C76.4887 13.1964 76.0451 13.9727 75.7916 14.3529C75.5698 14.6698 74.9678 15.3827 74.1915 15.3827C73.4153 15.3827 73.9222 15.3668 73.7955 15.3193C72.8925 15.0183 72.8925 13.5925 73.0984 12.7211C73.2727 11.9607 73.8905 10.519 75.047 9.93283C75.6332 9.63183 76.1877 9.56847 76.5521 9.56847C76.9165 9.56847 77.1858 9.63184 77.1858 9.63184L77.2809 9.66352V9.75857H77.2333Z" fill="#00437A"/>
<path d="M91.3333 7.57342C91.0164 7.41499 90.351 7.14565 89.4639 7.14565C88.5767 7.14565 87.4677 7.47836 86.5013 8.12791L86.2795 8.27048L87.4835 3.26422H83.9189L81.796 13.6728C81.796 13.7045 81.1306 16.3027 83.0001 17.3483C83.6338 17.6968 84.4418 17.8711 85.4081 17.8711C86.8657 17.8711 88.244 17.475 88.6876 17.2691L88.7668 17.2374C89.5906 16.8889 91.8086 15.9383 92.7274 12.6589C93.8047 8.84082 91.3491 7.55756 91.3174 7.54172L91.3333 7.57342ZM88.7985 13.5461C88.1014 14.8135 87.2776 15.2095 86.8498 15.3204C86.6914 15.368 86.5013 15.3838 86.3429 15.3838C86.0102 15.3838 85.7408 15.2888 85.5507 15.0987C85.1864 14.7501 85.2339 13.9738 85.3131 13.5777C85.3131 13.5302 85.5666 12.3579 85.8517 11.6291C86.1211 10.9162 86.8023 10.0449 87.5152 9.87059C87.6736 9.83891 87.9271 9.77552 88.1648 9.77552C88.9411 9.77552 89.353 10.2825 89.3846 11.2806C89.3846 11.3123 89.4639 12.2945 88.7985 13.5302V13.5461Z" fill="#00437A"/>
<path d="M59.3466 6.32163C60.5507 6.32163 61.5329 5.33938 61.5329 4.13535C61.5329 2.93131 60.5665 1.94907 59.3466 1.94907C58.1268 1.94907 57.1604 2.93131 57.1604 4.13535C57.1604 5.33938 58.1426 6.32163 59.3466 6.32163Z" fill="#CF043C"/>
</svg>
