<svg width="1366" height="369" viewBox="0 0 1366 369" fill="none" xmlns="http://www.w3.org/2000/svg">
<path d="M0 0H1366V369H0V0Z" fill="#480B77"/>
<path d="M1127 369H1004C1080 320 1112.5 367 1173 262.5C1233.5 158 1445 158 1445 158C1445 158 1239 258 1262.5 296.5C1286 335 1127 369 1127 369Z" fill="#7800C8"/>
<path d="M679.5 0.000488281H1094C1018 49.0005 637 48.0005 633.5 106.5C630 165 361.5 211.001 361.5 211.001C361.5 211.001 567.5 111 544 72.5005C520.5 34.0005 679.5 0.000488281 679.5 0.000488281Z" fill="#7800C8"/>
</svg>
