<?xml version="1.0" encoding="UTF-8" standalone="no"?>
<svg
   height="24px"
   viewBox="0 -960 960 960"
   width="24px"
   fill="#ffff"
   version="1.1"
   id="svg1"
   sodipodi:docname="carrito.svg"
   inkscape:version="1.4.2 (f4327f4, 2025-05-13)"
   xmlns:inkscape="http://www.inkscape.org/namespaces/inkscape"
   xmlns:sodipodi="http://sodipodi.sourceforge.net/DTD/sodipodi-0.dtd"
   xmlns="http://www.w3.org/2000/svg"
   xmlns:svg="http://www.w3.org/2000/svg">
  <defs
     id="defs1" />
  <sodipodi:namedview
     id="namedview1"
     pagecolor="#ffffff"
     bordercolor="#000000"
     borderopacity="0.25"
     inkscape:showpageshadow="2"
     inkscape:pageopacity="0.0"
     inkscape:pagecheckerboard="0"
     inkscape:deskcolor="#d1d1d1"
     inkscape:zoom="23.069359"
     inkscape:cx="20.568409"
     inkscape:cy="11.075297"
     inkscape:window-width="1920"
     inkscape:window-height="1001"
     inkscape:window-x="-9"
     inkscape:window-y="-9"
     inkscape:window-maximized="1"
     inkscape:current-layer="svg1" />
  <path
     d="m 280,-80 c -22,0 -40.83333,-7.833333 -56.5,-23.5 C 207.83333,-119.16667 200,-138 200,-160 c 0,-22 7.83333,-40.83333 23.5,-56.5 15.66667,-15.66667 34.5,-23.5 56.5,-23.5 22,0 40.83333,7.83333 56.5,23.5 15.66667,15.66667 23.5,34.5 23.5,56.5 0,22 -7.83333,40.83333 -23.5,56.5 C 320.83333,-87.833333 302,-80 280,-80 Z m 400,0 c -22,0 -40.83333,-7.833333 -56.5,-23.5 C 607.83333,-119.16667 600,-138 600,-160 c 0,-22 7.83333,-40.83333 23.5,-56.5 15.66667,-15.66667 34.5,-23.5 56.5,-23.5 22,0 40.83333,7.83333 56.5,23.5 15.66667,15.66667 23.5,34.5 23.5,56.5 0,22 -7.83333,40.83333 -23.5,56.5 C 720.83333,-87.833333 702,-80 680,-80 Z M 342,-520 h 280 l 114.90422,-191.41763 43.93103,-73.86973 C 788.67286,-798.46624 825,-793.16667 833,-779.5 c 8,13.66667 8.33333,27.5 1,41.5 l -142,256 c -7.33333,13.33333 -17.16667,23.66667 -29.5,31 -12.33333,7.33333 -25.83333,11 -40.5,11 H 324 l -44,80 h 440 c 11.33333,0 20.83333,3.83333 28.5,11.5 7.66667,7.66667 11.5,17.16667 11.5,28.5 0,11.33333 -3.83333,20.83333 -11.5,28.5 -7.66667,7.66667 -17.16667,11.5 -28.5,11.5 H 280 c -30,0 -52.66667,-13.16667 -68,-39.5 -15.33333,-26.33333 -16,-52.5 -2,-78.5 l 54,-98 -144,-304 H 80 c -11.333333,0 -20.833333,-3.83333 -28.5,-11.5 -7.666667,-7.66667 -11.5,-17.16667 -11.5,-28.5 0,-11.33333 3.833333,-20.83333 11.5,-28.5 7.666667,-7.66667 17.166667,-11.5 28.5,-11.5 h 65 c 7.33333,0 14.33333,2 21,6 6.66667,4 11.66667,9.66667 15,17 l -0.59004,0.75479 z m 0,0 h 280 z"
     id="path1"
     style="fill:#ffffff;fill-opacity:1"
     sodipodi:nodetypes="sssssssssssssssssscccssccssccssssssscccssssssscccccc" />
</svg>
