<svg width="254" height="254" viewBox="0 0 254 254" fill="none" xmlns="http://www.w3.org/2000/svg">
<circle cx="127" cy="127" r="127" fill="#51DF4C"/>
<path d="M114.636 148.916L176.251 87.3014C178.206 85.357 180.488 84.3848 183.096 84.3848C185.703 84.3848 187.978 85.3442 189.923 87.2631C191.867 89.1821 192.839 91.4607 192.839 94.0991C192.839 96.7375 191.867 99.0289 189.923 100.973L121.381 169.515C119.458 171.459 117.216 172.432 114.653 172.432C112.09 172.432 109.836 171.459 107.891 169.515L75.4435 137.067C73.4991 135.155 72.5572 132.885 72.618 130.255C72.6788 127.626 73.6686 125.34 75.5875 123.395C77.5065 121.451 79.7851 120.479 82.4235 120.479C85.0618 120.479 87.3532 121.451 89.2977 123.395L114.636 148.916Z" fill="white"/>
</svg>
