<?xml version="1.0" encoding="UTF-8" standalone="no"?>
<svg
   height="18"
   viewBox="0 -960 719.99999 720"
   width="18"
   fill="#fe7a34"
   version="1.1"
   id="svg1"
   sodipodi:docname="darkmode.svg"
   inkscape:version="1.4.2 (f4327f4, 2025-05-13)"
   xmlns:inkscape="http://www.inkscape.org/namespaces/inkscape"
   xmlns:sodipodi="http://sodipodi.sourceforge.net/DTD/sodipodi-0.dtd"
   xmlns="http://www.w3.org/2000/svg"
   xmlns:svg="http://www.w3.org/2000/svg">
  <defs
     id="defs1" />
  <sodipodi:namedview
     id="namedview1"
     pagecolor="#ffffff"
     bordercolor="#000000"
     borderopacity="0.25"
     inkscape:showpageshadow="2"
     inkscape:pageopacity="0.0"
     inkscape:pagecheckerboard="0"
     inkscape:deskcolor="#d1d1d1"
     inkscape:zoom="45.254834"
     inkscape:cx="5.4469319"
     inkscape:cy="11.14798"
     inkscape:window-width="1920"
     inkscape:window-height="1001"
     inkscape:window-x="-9"
     inkscape:window-y="-9"
     inkscape:window-maximized="1"
     inkscape:current-layer="svg1"
     inkscape:clip-to-page="false"
     inkscape:antialias-rendering="true" />
  <path
     d="m 359.99996,-240 c -100,0 -185,-35 -255,-105 C 34.999998,-415 0,-500 0,-600 c 0,-100 34.999998,-185 104.99996,-255 70,-70 155,-105 255,-105 9.33333,0 18.5,0.33333 27.5,1 9,0.66667 17.83333,1.66667 26.5,3 -27.33333,19.33333 -49.16667,44.5 -65.5,75.5 -16.33333,31 -24.5,64.5 -24.5,100.5 0,60 21,111 63,153 42,42 93,63 153,63 36.66667,0 70.33333,-8.16667 101,-24.5 30.66667,-16.33333 55.66667,-38.16667 75,-65.5 1.33333,8.66667 2.33333,17.5 3,26.5 0.66667,9 1,18.16667 1,27.5 0,100 -35,185 -105,255 -70,70 -155,105 -255,105 z"
     id="path1"
     sodipodi:nodetypes="sssssscssssscssss"
     style="fill:#010738;fill-opacity:1" />
</svg>
