<svg width="43" height="26" viewBox="0 0 43 26" fill="none" xmlns="http://www.w3.org/2000/svg">
<path d="M0 2C0 0.89543 0.895431 0 2 0H41C42.1046 0 43 0.895431 43 2V24C43 25.1046 42.1046 26 41 26H2C0.895432 26 0 25.1046 0 24V2Z" fill="#1434CB"/>
<path d="M5 9C5 8.44772 5.44772 8 6 8H11C11.5523 8 12 8.44772 12 9V12C12 12.5523 11.5523 13 11 13H6C5.44772 13 5 12.5523 5 12V9Z" fill="#D9D9D9"/>
<path d="M2 18C2 17.4477 2.44772 17 3 17H8C8.55228 17 9 17.4477 9 18C9 18.5523 8.55228 19 8 19H3C2.44772 19 2 18.5523 2 18Z" fill="#D9D9D9"/>
<path d="M13 18C13 17.4477 13.4477 17 14 17H19C19.5523 17 20 17.4477 20 18C20 18.5523 19.5523 19 19 19H14C13.4477 19 13 18.5523 13 18Z" fill="#D9D9D9"/>
<path d="M24 18C24 17.4477 24.4477 17 25 17H30C30.5523 17 31 17.4477 31 18C31 18.5523 30.5523 19 30 19H25C24.4477 19 24 18.5523 24 18Z" fill="#D9D9D9"/>
<path d="M33 18C33 17.4477 33.4477 17 34 17H39C39.5523 17 40 17.4477 40 18C40 18.5523 39.5523 19 39 19H34C33.4477 19 33 18.5523 33 18Z" fill="#D9D9D9"/>
<path d="M30.9179 5C29.0738 5 27.4256 5.906 27.4256 7.57952C27.4256 9.49895 30.3485 9.63152 30.3485 10.5959C30.3485 11.002 29.8577 11.3654 29.0189 11.3654C27.8289 11.3654 26.9394 10.8576 26.9394 10.8576L26.5588 12.5466C26.5588 12.5466 27.5834 12.9756 28.9438 12.9756C30.9601 12.9756 32.5468 12.0253 32.5468 10.3229C32.5468 8.29457 29.6117 8.16595 29.6117 7.27104C29.6117 6.95294 30.0147 6.60453 30.8509 6.60453C31.7944 6.60453 32.564 6.97388 32.564 6.97388L32.9366 5.34274C32.9366 5.34274 32.0991 5 30.9179 5ZM14.0447 5.1232L14 5.36935C14 5.36935 14.7758 5.50388 15.4747 5.77245C16.3746 6.0802 16.4385 6.25958 16.5901 6.81594L18.2414 12.8485H20.455L23.8652 5.1232H21.6567L19.4655 10.3756L18.5713 5.92325C18.4894 5.4137 18.0739 5.12295 17.5656 5.12295L14.0447 5.1232ZM24.7533 5.1232L23.021 12.8485H25.127L26.8531 5.1232H24.7533ZM36.4991 5.1232C35.9913 5.1232 35.7222 5.38093 35.5249 5.8311L32.4395 12.8485H34.6479L35.0751 11.6788H37.7656L38.0253 12.8485H39.974L38.2741 5.1232H36.4991ZM36.7864 7.21042L37.4411 10.1093H35.6874L36.7864 7.21042Z" fill="white"/>
</svg>
