<svg width="43" height="26" viewBox="0 0 43 26" fill="none" xmlns="http://www.w3.org/2000/svg">
<path d="M0 2C0 0.89543 0.895431 0 2 0H41C42.1046 0 43 0.895431 43 2V24C43 25.1046 42.1046 26 41 26H2C0.895432 26 0 25.1046 0 24V2Z" fill="url(#paint0_linear_1817_282)"/>
<path d="M5 9C5 8.44772 5.44772 8 6 8H11C11.5523 8 12 8.44772 12 9V12C12 12.5523 11.5523 13 11 13H6C5.44772 13 5 12.5523 5 12V9Z" fill="#D9D9D9"/>
<path d="M2 18C2 17.4477 2.44772 17 3 17H8C8.55228 17 9 17.4477 9 18C9 18.5523 8.55228 19 8 19H3C2.44772 19 2 18.5523 2 18Z" fill="#D9D9D9"/>
<path d="M13 18C13 17.4477 13.4477 17 14 17H19C19.5523 17 20 17.4477 20 18C20 18.5523 19.5523 19 19 19H14C13.4477 19 13 18.5523 13 18Z" fill="#D9D9D9"/>
<path d="M24 18C24 17.4477 24.4477 17 25 17H30C30.5523 17 31 17.4477 31 18C31 18.5523 30.5523 19 30 19H25C24.4477 19 24 18.5523 24 18Z" fill="#D9D9D9"/>
<path d="M33 18C33 17.4477 33.4477 17 34 17H39C39.5523 17 40 17.4477 40 18C40 18.5523 39.5523 19 39 19H34C33.4477 19 33 18.5523 33 18Z" fill="#D9D9D9"/>
<path d="M19.6443 7.40336L19.2103 6.346L18.7789 7.40336M29.2035 6.98232C29.1163 7.0352 29.0133 7.03696 28.8899 7.03696H28.1197V6.44784H28.9003C29.0108 6.44784 29.1261 6.4528 29.201 6.49568C29.2832 6.53432 29.3341 6.61656 29.3341 6.73016C29.3341 6.84608 29.2857 6.93936 29.2035 6.98232ZM34.6977 7.40336L34.259 6.346L33.8227 7.40336H34.6977ZM24.4561 8.54784H23.8062L23.8038 6.47056L22.8845 8.54784H22.3279L21.4062 6.46872V8.54784H20.1167L19.8731 7.95624H18.5531L18.3071 8.54784H17.6185L18.7538 5.89552H19.6957L20.7739 8.40672V5.89552H21.8087L22.6383 7.6948L23.4005 5.89552H24.456L24.4561 8.54784ZM27.0464 8.54784H24.9286V5.89552H27.0464V6.44784H25.5626V6.92592H27.0108V7.4696H25.5626V7.99928H27.0464V8.54784ZM30.0325 6.60984C30.0325 7.03272 29.7503 7.2512 29.5858 7.3168C29.7245 7.3696 29.843 7.46288 29.8994 7.54016C29.9889 7.67208 30.0043 7.78992 30.0043 8.0268V8.54784H29.3649L29.3625 8.21336C29.3625 8.05376 29.3778 7.82424 29.2624 7.69664C29.1698 7.60336 29.0286 7.58312 28.8003 7.58312H28.1198V8.54784H27.4859V5.89552H28.944C29.268 5.89552 29.5067 5.90408 29.7117 6.02256C29.9123 6.14104 30.0325 6.314 30.0325 6.60984ZM31.0471 8.54784H30.4002V5.89552H31.0471V8.54784ZM38.5517 8.54784H37.6533L36.4516 6.55712V8.54784H35.1605L34.9138 7.95624H33.5968L33.3575 8.54784H32.6156C32.3075 8.54784 31.9173 8.47968 31.6963 8.25448C31.4735 8.02928 31.3576 7.72424 31.3576 7.24192C31.3576 6.84856 31.4269 6.48896 31.6994 6.2048C31.9043 5.99312 32.2253 5.89552 32.6622 5.89552H33.2759V6.46384H32.6751C32.4437 6.46384 32.3131 6.49824 32.1872 6.62096C32.0791 6.73264 32.005 6.94376 32.005 7.22176C32.005 7.50592 32.0615 7.7108 32.1793 7.84464C32.2769 7.9496 32.4543 7.98144 32.6211 7.98144H32.9059L33.7994 5.8956H34.7493L35.8227 8.40432V5.8956H36.7879L37.9023 7.7428V5.8956H38.5517V8.54784ZM17.6111 9.0688H18.6943L18.9386 8.47968H19.4854L19.729 9.0688H21.8603V8.6184L22.0505 9.07072H23.1569L23.3471 8.61168V9.0688H28.6438L28.6413 8.10176H28.7438C28.8155 8.10424 28.8365 8.11088 28.8365 8.22936V9.0688H31.5759V8.84368C31.7969 8.96208 32.1406 9.0688 32.5928 9.0688H33.7453L33.9919 8.47968H34.5387L34.7799 9.0688H37.0008V8.5092L37.3371 9.0688H39.1168V5.3696H37.3555V5.80648L37.1089 5.3696H35.3016V5.80648L35.0751 5.3696H32.6339C32.2253 5.3696 31.8661 5.42664 31.5759 5.5856V5.3696H29.8913V5.5856C29.7067 5.42176 29.4551 5.3696 29.1753 5.3696H23.0207L22.6077 6.32504L22.1836 5.3696H20.2451V5.80648L20.0321 5.3696H18.3788L17.6111 7.1284L17.6111 9.0688Z" fill="white"/>
<path d="M40.1667 11.0252H39.0113C38.8959 11.0252 38.8193 11.0295 38.7547 11.0731C38.6879 11.1161 38.6621 11.1798 38.6621 11.264C38.6621 11.3641 38.7186 11.4322 38.8007 11.4616C38.8676 11.4849 38.9395 11.4917 39.0451 11.4917L39.3887 11.5009C39.7354 11.5094 39.9668 11.569 40.1079 11.7144C40.1336 11.7346 40.1491 11.7574 40.1667 11.7801M40.1667 12.7742C40.0127 12.9994 39.7127 13.1136 39.3064 13.1136H38.0821V12.5447H39.3015C39.4224 12.5447 39.5071 12.5288 39.558 12.479C39.6022 12.438 39.633 12.3784 39.633 12.306C39.633 12.2287 39.6022 12.1674 39.5555 12.1306C39.5095 12.0901 39.4426 12.0717 39.3322 12.0717C38.7369 12.0514 37.9943 12.0901 37.9943 11.2506C37.9943 10.8658 38.2386 10.4607 38.9039 10.4607H40.1667V9.93288H38.9934C38.6393 9.93288 38.3821 10.0177 38.1999 10.1495V9.93288H36.4645C36.187 9.93288 35.8612 10.0017 35.7071 10.1495V9.93288H32.6081V10.1495C32.3615 9.9716 31.9453 9.93288 31.7532 9.93288H29.7091V10.1495C29.5139 9.96056 29.08 9.93288 28.8155 9.93288H26.5278L26.0043 10.4994L25.5139 9.93288H22.0965V13.6346H25.4496L25.9891 13.0591L26.4972 13.6346L28.5641 13.6365V12.7657H28.7673C29.0415 12.7699 29.365 12.7589 29.6503 12.6355V13.6346H31.3551V12.6698H31.4374C31.5423 12.6698 31.5527 12.6741 31.5527 12.779V13.6345H36.7315C37.0603 13.6345 37.404 13.5503 37.5943 13.3976V13.6345H39.2371C39.5789 13.6345 39.9127 13.5866 40.1667 13.4638V12.7742ZM37.6379 11.7144C37.7613 11.8422 37.8275 12.0034 37.8275 12.2765C37.8275 12.8472 37.4709 13.1136 36.8315 13.1136H35.5967V12.5447H36.8266C36.9468 12.5447 37.0321 12.5288 37.0855 12.479C37.1291 12.438 37.1604 12.3784 37.1604 12.306C37.1604 12.2287 37.1266 12.1674 37.0831 12.1306C37.0346 12.0901 36.9677 12.0717 36.8573 12.0717C36.2644 12.0514 35.5219 12.0901 35.5219 11.2506C35.5219 10.8658 35.7637 10.4607 36.4283 10.4607H37.6993V11.0254H36.5363C36.4211 11.0254 36.3461 11.0297 36.2823 11.0733C36.2129 11.1162 36.1871 11.18 36.1871 11.2642C36.1871 11.3642 36.2461 11.4323 36.3259 11.4618C36.3927 11.485 36.4646 11.4918 36.5726 11.4918L36.9139 11.501C37.258 11.5094 37.4943 11.569 37.6379 11.7144ZM31.9172 11.5506C31.8324 11.6009 31.7275 11.6052 31.6042 11.6052H30.834V11.0094H31.6147C31.7275 11.0094 31.8405 11.0118 31.9172 11.0573C31.9994 11.1002 32.0485 11.1824 32.0485 11.2959C32.0485 11.4094 31.9994 11.5009 31.9172 11.5506ZM32.3001 11.8807C32.4412 11.9328 32.5566 12.0262 32.6107 12.1034C32.7002 12.233 32.7131 12.3538 32.7157 12.5877V13.1136H32.0792V12.7817C32.0792 12.6221 32.0946 12.3858 31.9767 12.2624C31.8841 12.1674 31.7429 12.1446 31.5116 12.1446H30.8341V13.1136H30.1971V10.4606H31.6607C31.9817 10.4606 32.2155 10.4748 32.4235 10.5858C32.6236 10.7067 32.7495 10.8723 32.7495 11.175C32.7494 11.5984 32.467 11.8145 32.3001 11.8807ZM33.101 10.4606H35.2169V11.0093H33.7323V11.4916H35.1807V12.0329H33.7323V12.5607L35.2169 12.5631V13.1136H33.101V10.4606ZM28.8236 11.685H28.0043V11.0094H28.831C29.0599 11.0094 29.2187 11.1026 29.2187 11.3346C29.2187 11.5641 29.0672 11.685 28.8236 11.685ZM27.3729 12.8723L26.3995 11.7917L27.3729 10.7454V12.8723ZM24.8592 12.5607H23.3005V12.0329H24.6923V11.4916H23.3005V11.0093H24.8899L25.5834 11.7824L24.8592 12.5607ZM29.8994 11.3346C29.8994 12.0716 29.3495 12.2238 28.7954 12.2238H28.0043V13.1136H26.7721L25.9915 12.2354L25.1802 13.1136H22.669V10.4606H25.2188L25.9988 11.3302L26.8052 10.4606H28.831C29.3341 10.4606 29.8994 10.5999 29.8994 11.3346Z" fill="white"/>
<defs>
<linearGradient id="paint0_linear_1817_282" x1="21.5" y1="0" x2="21.5" y2="26" gradientUnits="userSpaceOnUse">
<stop offset="0.538462" stop-color="#0FAEE9"/>
<stop offset="1" stop-color="#096183"/>
</linearGradient>
</defs>
</svg>
