<svg width="43" height="26" viewBox="0 0 43 26" fill="none" xmlns="http://www.w3.org/2000/svg">
<path d="M0 2C0 0.89543 0.895431 0 2 0H41C42.1046 0 43 0.895431 43 2V24C43 25.1046 42.1046 26 41 26H2C0.895432 26 0 25.1046 0 24V2Z" fill="#000166"/>
<path d="M5 9C5 8.44772 5.44772 8 6 8H11C11.5523 8 12 8.44772 12 9V12C12 12.5523 11.5523 13 11 13H6C5.44772 13 5 12.5523 5 12V9Z" fill="#D9D9D9"/>
<path d="M2 18C2 17.4477 2.44772 17 3 17H8C8.55228 17 9 17.4477 9 18C9 18.5523 8.55228 19 8 19H3C2.44772 19 2 18.5523 2 18Z" fill="#D9D9D9"/>
<path d="M13 18C13 17.4477 13.4477 17 14 17H19C19.5523 17 20 17.4477 20 18C20 18.5523 19.5523 19 19 19H14C13.4477 19 13 18.5523 13 18Z" fill="#D9D9D9"/>
<path d="M24 18C24 17.4477 24.4477 17 25 17H30C30.5523 17 31 17.4477 31 18C31 18.5523 30.5523 19 30 19H25C24.4477 19 24 18.5523 24 18Z" fill="#D9D9D9"/>
<path d="M33 18C33 17.4477 33.4477 17 34 17H39C39.5523 17 40 17.4477 40 18C40 18.5523 39.5523 19 39 19H34C33.4477 19 33 18.5523 33 18Z" fill="#D9D9D9"/>
<path d="M39.8578 11.7202V11.5352H39.8128L39.7603 11.6586L39.7078 11.5352H39.6628V11.7202H39.6928V11.5814L39.7453 11.7048H39.7828L39.8353 11.5814V11.7202H39.8578ZM39.5578 11.7202V11.566H39.6178V11.5352H39.4678V11.566H39.5278V11.7202H39.5578Z" fill="#00A2E5"/>
<path d="M34.5253 12.5137H30.4678V5.01758H34.5253V12.5137Z" fill="#7375CF"/>
<path d="M30.73 8.76607C30.73 7.24679 31.42 5.88946 32.5 5.01799C31.7125 4.37789 30.715 4 29.635 4C27.0775 4 25 6.13625 25 8.76607C25 11.3959 27.0775 13.5321 29.635 13.5321C30.715 13.5321 31.7125 13.1542 32.5 12.5141C31.42 11.6427 30.73 10.2853 30.73 8.76607Z" fill="#EB001B"/>
<path d="M40 8.76607C40 11.3959 37.9225 13.5321 35.365 13.5321C34.285 13.5321 33.2875 13.1542 32.5 12.5141C33.58 11.6427 34.27 10.2853 34.27 8.76607C34.27 7.24679 33.58 5.88946 32.5 5.01799C33.2875 4.37789 34.285 4 35.365 4C37.9225 4 40 6.13625 40 8.76607Z" fill="#00A2E5"/>
</svg>
