<svg width="43" height="26" viewBox="0 0 43 26" fill="none" xmlns="http://www.w3.org/2000/svg">
<path d="M0 2C0 0.89543 0.895431 0 2 0H41C42.1046 0 43 0.895431 43 2V24C43 25.1046 42.1046 26 41 26H2C0.895432 26 0 25.1046 0 24V2Z" fill="#3F3F4E"/>
<path d="M5 9C5 8.44772 5.44772 8 6 8H11C11.5523 8 12 8.44772 12 9V12C12 12.5523 11.5523 13 11 13H6C5.44772 13 5 12.5523 5 12V9Z" fill="#D9D9D9"/>
<path d="M2 18C2 17.4477 2.44772 17 3 17H8C8.55228 17 9 17.4477 9 18C9 18.5523 8.55228 19 8 19H3C2.44772 19 2 18.5523 2 18Z" fill="#D9D9D9"/>
<path d="M13 18C13 17.4477 13.4477 17 14 17H19C19.5523 17 20 17.4477 20 18C20 18.5523 19.5523 19 19 19H14C13.4477 19 13 18.5523 13 18Z" fill="#D9D9D9"/>
<path d="M24 18C24 17.4477 24.4477 17 25 17H30C30.5523 17 31 17.4477 31 18C31 18.5523 30.5523 19 30 19H25C24.4477 19 24 18.5523 24 18Z" fill="#D9D9D9"/>
<path d="M33 18C33 17.4477 33.4477 17 34 17H39C39.5523 17 40 17.4477 40 18C40 18.5523 39.5523 19 39 19H34C33.4477 19 33 18.5523 33 18Z" fill="#D9D9D9"/>
<path d="M28.236 4C26.8443 4.00429 25.5113 4.53407 24.5296 5.47303C23.5479 6.41199 22.9978 7.68339 23 9.00806C23.0023 10.3327 23.5567 11.6024 24.5416 12.5384C25.5265 13.4743 26.8613 14 28.253 14C29.6447 14 30.9795 13.4743 31.9644 12.5384C32.9493 11.6024 33.5037 10.3327 33.506 9.00806C33.5082 7.68339 32.9581 6.41199 31.9764 5.47303C30.9947 4.53407 29.6617 4.00429 28.27 4H28.236Z" fill="#EB001B"/>
<path d="M34.73 4C33.3383 4.00429 32.0053 4.53407 31.0236 5.47303C30.0419 6.41199 29.4918 7.68339 29.494 9.00806C29.4963 10.3327 30.0507 11.6024 31.0356 12.5384C32.0205 13.4743 33.3553 14 34.747 14C36.1387 14 37.4735 13.4743 38.4584 12.5384C39.4433 11.6024 39.9977 10.3327 40 9.00806C40.0022 7.68339 39.4521 6.41199 38.4704 5.47303C37.4887 4.53407 36.1557 4.00429 34.764 4H34.73Z" fill="#F79E1B"/>
<path d="M31.5 5.06796C30.8743 5.5358 30.3683 6.13283 30.0205 6.81399C29.6726 7.49514 29.4918 8.24262 29.4918 9C29.4918 9.75738 29.6726 10.5049 30.0205 11.186C30.3683 11.8672 30.8743 12.4642 31.5 12.932C32.1257 12.4642 32.6317 11.8672 32.9795 11.186C33.3274 10.5049 33.5082 9.75738 33.5082 9C33.5082 8.24262 33.3274 7.49514 32.9795 6.81399C32.6317 6.13283 32.1257 5.5358 31.5 5.06796Z" fill="#FF5F00"/>
</svg>
