<svg width="35" height="22" viewBox="0 0 35 22" fill="none" xmlns="http://www.w3.org/2000/svg">
<g clip-path="url(#clip0_1636_3069)">
<path d="M10.78 0C7.91473 0.00943138 5.17024 1.17495 3.1491 3.24067C1.12796 5.30639 -0.00462221 8.10345 1.41788e-05 11.0177C0.00465057 13.932 1.14613 16.7254 3.17383 18.7844C5.20153 20.8435 7.94972 21.9999 10.815 21.9999C13.6803 21.9999 16.4285 20.8435 18.4562 18.7844C20.4839 16.7254 21.6253 13.932 21.63 11.0177C21.6346 8.10345 20.502 5.30639 18.4809 3.24067C16.4598 1.17495 13.7153 0.00943138 10.85 0L10.78 0Z" fill="#EB001B"/>
<path d="M24.1501 0C21.2848 0.00943138 18.5404 1.17495 16.5192 3.24067C14.4981 5.30639 13.3655 8.10345 13.3701 11.0177C13.3748 13.932 14.5162 16.7254 16.5439 18.7844C18.5716 20.8435 21.3198 21.9999 24.1851 21.9999C27.0504 21.9999 29.7986 20.8435 31.8263 18.7844C33.854 16.7254 34.9955 13.932 35.0001 11.0177C35.0047 8.10345 33.8722 5.30639 31.851 3.24067C29.8299 1.17495 27.0854 0.00943138 24.2201 0L24.1501 0Z" fill="#F79E1B"/>
<path d="M17.4997 2.34961C16.2114 3.37885 15.1699 4.69232 14.4536 6.19087C13.7374 7.68941 13.3652 9.33387 13.3652 11.0001C13.3652 12.6663 13.7374 14.3108 14.4536 15.8093C15.1699 17.3079 16.2114 18.6213 17.4997 19.6506C18.788 18.6213 19.8296 17.3079 20.5458 15.8093C21.2621 14.3108 21.6342 12.6663 21.6342 11.0001C21.6342 9.33387 21.2621 7.68941 20.5458 6.19087C19.8296 4.69232 18.788 3.37885 17.4997 2.34961Z" fill="#FF5F00"/>
</g>
<defs>
<clipPath id="clip0_1636_3069">
<rect width="35" height="22" rx="2" fill="white"/>
</clipPath>
</defs>
</svg>
