<svg width="76" height="20" viewBox="0 0 76 20" fill="none" xmlns="http://www.w3.org/2000/svg">
<path d="M13.6963 0.359666C6.27563 0.359666 0.261248 4.25139 0.261248 9.0524C0.261248 13.8534 6.27658 18.1212 13.6963 18.1212C21.1161 18.1212 27.1314 13.8524 27.1314 9.0524C27.1314 4.25235 21.1161 0.359666 13.6963 0.359666Z" fill="#00BCFF"/>
<path d="M9.32477 6.36503C9.31809 6.37853 9.18652 6.51545 9.27233 6.62634C9.48018 6.8944 10.1219 7.04868 10.7712 6.90115C11.1573 6.81341 11.6531 6.41517 12.1327 6.03043C12.6523 5.61291 13.1681 5.19443 13.6868 5.02858C14.236 4.85212 14.5878 4.92733 14.8205 4.99868C15.075 5.07582 15.3754 5.24553 15.854 5.60809C16.755 6.29271 20.3762 9.49017 21.0027 10.0427C21.5061 9.81223 23.9078 8.83159 26.9512 8.15275C26.6862 6.5116 25.7108 4.94661 24.2129 3.71816C22.1258 4.60431 19.4056 5.13561 16.9114 3.90426C16.899 3.89944 15.5489 3.25339 14.2179 3.28521C12.2395 3.33149 11.3823 4.19739 10.4756 5.11439L9.32667 6.36696L9.32477 6.36503Z" fill="white"/>
<path d="M20.853 10.3908C20.8101 10.3522 16.5939 6.62152 15.6385 5.89544C15.0855 5.47599 14.7785 5.36896 14.4553 5.32749C14.2875 5.30531 14.0548 5.33713 13.8928 5.38245C13.4484 5.50491 12.8678 5.89737 12.352 6.31103C11.818 6.74109 11.3146 7.14607 10.8465 7.25214C10.2496 7.38713 9.52022 7.22803 9.18747 7.00047C9.05303 6.90887 8.95769 6.8028 8.91192 6.69577C8.78893 6.40745 9.01585 6.177 9.05303 6.13843L10.2162 4.86561C10.3516 4.72966 10.488 4.59273 10.6272 4.45774C10.2515 4.50691 9.90447 4.6043 9.56695 4.6988C9.14552 4.81837 8.73935 4.93215 8.32936 4.93215C8.15774 4.93215 7.24052 4.7798 7.06604 4.73255C6.01247 4.44134 4.8197 4.15689 3.43911 3.50506C1.78487 4.7499 0.707464 6.27921 0.388058 7.99461C0.625467 8.05825 1.24807 8.20193 1.4092 8.2376C5.15246 9.0794 6.31853 9.94626 6.5302 10.1275C6.75903 9.87008 7.08987 9.70712 7.45791 9.70712C7.87266 9.70712 8.24546 9.9183 8.47238 10.2432C8.68691 10.0716 8.98248 9.92505 9.36481 9.92601C9.53834 9.92601 9.71854 9.9588 9.90065 10.0205C10.323 10.1671 10.5414 10.4515 10.6539 10.709C10.795 10.6444 10.9695 10.5962 11.1745 10.5971C11.3766 10.5971 11.5864 10.6434 11.7971 10.736C12.4874 11.0359 12.5942 11.7214 12.5322 12.2383C12.5818 12.2325 12.6313 12.2306 12.6809 12.2306C13.499 12.2306 14.1645 12.9036 14.1645 13.7319C14.1645 13.9884 14.0997 14.2295 13.9871 14.4406C14.2103 14.567 14.7776 14.8533 15.2762 14.7897C15.6738 14.7386 15.8254 14.6017 15.8788 14.5236C15.916 14.4705 15.9551 14.4079 15.9188 14.3635L14.8624 13.1775C14.8624 13.1775 14.6889 13.0107 14.7461 12.947C14.8052 12.8814 14.913 12.9759 14.9892 13.0396C15.527 13.4937 16.1829 14.1784 16.1829 14.1784C16.1944 14.1861 16.2373 14.2729 16.4804 14.3162C16.6892 14.3539 17.0592 14.3326 17.3157 14.1195C17.3795 14.0655 17.4444 13.999 17.4997 13.9296C17.4949 13.9334 17.4911 13.9373 17.4873 13.9392C17.7581 13.5892 17.4568 13.2363 17.4568 13.2363L16.2239 11.8362C16.2239 11.8362 16.0476 11.6713 16.1076 11.6048C16.161 11.5469 16.2745 11.6337 16.3517 11.6993C16.7417 12.029 17.2937 12.5893 17.8219 13.1129C17.9259 13.189 18.3902 13.4793 19.0052 13.0714C19.3789 12.8236 19.4533 12.5189 19.4428 12.2904C19.4171 11.9866 19.1825 11.7697 19.1825 11.7697L17.4987 10.0571C17.4987 10.0571 17.3204 9.90383 17.3833 9.82573C17.4348 9.76016 17.5502 9.85466 17.6265 9.9183C18.1623 10.3725 19.6154 11.7195 19.6154 11.7195C19.6364 11.734 20.1379 12.0956 20.7586 11.6964C20.9807 11.5527 21.1218 11.3367 21.1342 11.085C21.1552 10.6492 20.853 10.3908 20.853 10.3908Z" fill="white"/>
<path d="M12.6838 12.5613C12.4225 12.5584 12.1365 12.7156 12.0993 12.6924C12.0783 12.679 12.1155 12.5729 12.1394 12.5112C12.1651 12.4504 12.5083 11.4042 11.6703 11.0407C11.0286 10.762 10.6358 11.0754 10.5013 11.2171C10.466 11.2538 10.4498 11.2509 10.446 11.2046C10.4327 11.0156 10.3497 10.5065 9.79577 10.3349C9.00441 10.0899 8.49526 10.6482 8.36655 10.8507C8.30839 10.3946 7.92701 10.0408 7.46077 10.0398C6.95353 10.0398 6.54164 10.4544 6.54069 10.9684C6.54069 11.4814 6.95162 11.8979 7.45981 11.8979C7.70676 11.8979 7.92987 11.7986 8.09481 11.6385C8.10053 11.6433 8.10244 11.652 8.09958 11.6694C8.06049 11.8998 7.98993 12.7339 8.85472 13.0743C9.20177 13.2103 9.49639 13.109 9.74047 12.9364C9.81293 12.8843 9.82533 12.9065 9.81484 12.9759C9.78338 13.191 9.82342 13.65 10.4603 13.9113C10.9447 14.1109 11.2317 13.9074 11.4205 13.7309C11.5025 13.6557 11.5244 13.6683 11.5291 13.7849C11.552 14.4059 12.0621 14.8996 12.6819 14.9006C13.3207 14.9006 13.8384 14.3789 13.8384 13.7338C13.8384 13.0878 13.3216 12.571 12.6828 12.5642L12.6838 12.5613Z" fill="white"/>
<path d="M13.6935 0C6.13165 0 0.00190731 4.06722 0.00190731 9.05626C0.00190731 9.18546 0 9.54127 0 9.58659C0 14.8803 5.35745 19.1664 13.6916 19.1664C22.0257 19.1664 27.3841 14.8803 27.3841 9.58756V9.05626C27.3841 4.06722 21.2544 0 13.6935 0ZM26.7672 8.05247C23.7915 8.72166 21.5719 9.69266 21.016 9.94337C19.7174 8.79687 16.7159 6.15771 15.9026 5.54059C15.4383 5.18671 15.1208 5.00061 14.8424 4.91672C14.7175 4.87815 14.5449 4.83476 14.3228 4.83476C14.1159 4.83476 13.8937 4.87237 13.662 4.94758C13.1367 5.11632 12.6132 5.53674 12.1069 5.94365L12.0812 5.96486C11.6092 6.34381 11.122 6.73626 10.753 6.81919C10.5919 6.85583 10.426 6.87512 10.2611 6.87512C9.84726 6.87512 9.47637 6.75362 9.33716 6.57427C9.31428 6.54438 9.32953 6.49617 9.38293 6.4277L9.3896 6.41806L10.5328 5.17321C11.4281 4.26778 12.2728 3.41345 14.2188 3.36813C14.2513 3.36717 14.2837 3.3662 14.3161 3.3662C15.527 3.36717 16.7379 3.91486 16.8742 3.97947C18.0098 4.5397 19.1825 4.82415 20.36 4.82512C21.5852 4.82512 22.8495 4.51945 24.1786 3.90136C25.5668 5.08161 26.4869 6.50292 26.7672 8.05247ZM13.6954 0.534196C17.7094 0.534196 21.3001 1.69805 23.7152 3.53013C22.5482 4.04118 21.4355 4.29864 20.3619 4.29864C19.2636 4.29767 18.1661 4.03057 17.1002 3.50506C17.0439 3.47806 15.7072 2.84069 14.3161 2.83972C14.2799 2.83972 14.2427 2.83972 14.2064 2.84069C12.5722 2.87926 11.6512 3.46649 11.0324 3.98043C10.4308 3.99586 9.91114 4.14243 9.44872 4.2726C9.03587 4.38831 8.68023 4.48859 8.33318 4.48859C8.19016 4.48859 7.93273 4.47509 7.90984 4.47413C7.5113 4.46159 5.50905 3.965 3.91011 3.35463C6.31948 1.62284 9.81103 0.533231 13.6963 0.533231L13.6954 0.534196ZM3.43529 3.71719C5.10478 4.4076 7.13087 4.94179 7.77159 4.98325C7.94989 4.99483 8.14058 5.01604 8.33127 5.01604C8.75651 5.01604 9.1808 4.89551 9.59078 4.7798C9.83296 4.71134 10.1009 4.63612 10.3821 4.58213C10.3068 4.65637 10.2315 4.73255 10.1562 4.80872L8.99583 6.07864C8.90429 6.17218 8.70598 6.42095 8.8366 6.72759C8.88809 6.85101 8.99392 6.96961 9.1417 7.0699C9.41821 7.25792 9.914 7.38617 10.3736 7.38617C10.548 7.38617 10.7139 7.36881 10.8646 7.3341C11.3518 7.22418 11.8619 6.81244 12.4025 6.37756C12.8335 6.0314 13.4456 5.5917 13.9147 5.46249C14.0463 5.42681 14.2064 5.40367 14.3361 5.40367C14.3752 5.40367 14.4114 5.4056 14.4448 5.41042C14.7537 5.44995 15.0531 5.55602 15.588 5.96197C16.5414 6.68612 20.7576 10.4168 20.7986 10.4535C20.8015 10.4554 21.0703 10.6907 21.0513 11.0802C21.0408 11.2981 20.9216 11.491 20.7138 11.625C20.5336 11.7407 20.3486 11.7996 20.1608 11.7996C19.8785 11.7996 19.685 11.6655 19.6716 11.6568C19.6564 11.6443 18.2119 10.304 17.6799 9.85369C17.595 9.78234 17.513 9.7187 17.4301 9.7187C17.3853 9.7187 17.3462 9.73798 17.3195 9.77173C17.2356 9.87587 17.329 10.0205 17.4396 10.115L19.1272 11.8314C19.1272 11.8314 19.3379 12.03 19.3608 12.2932C19.3742 12.5777 19.2397 12.8159 18.9604 13.001C18.7611 13.1341 18.5599 13.2006 18.3625 13.2006C18.1032 13.2006 17.9211 13.081 17.8811 13.0531L17.6389 12.812C17.1965 12.3714 16.7398 11.9162 16.4051 11.6347C16.3231 11.5662 16.2363 11.5026 16.1534 11.5026C16.1124 11.5026 16.0752 11.518 16.0466 11.5488C16.0085 11.5913 15.9818 11.6684 16.0771 11.7967C16.1153 11.8497 16.162 11.8931 16.162 11.8931L17.3929 13.2922C17.4024 13.3047 17.6465 13.5979 17.4205 13.8891L17.3767 13.945C17.3395 13.9855 17.3004 14.0241 17.2623 14.0569C17.0525 14.2314 16.7722 14.2497 16.6606 14.2497C16.6006 14.2497 16.5443 14.2449 16.4938 14.2353C16.3727 14.2131 16.2907 14.1793 16.2506 14.1321L16.2354 14.1166C16.1686 14.0463 15.548 13.405 15.034 12.9721C14.9663 12.9142 14.8815 12.8429 14.7947 12.8429C14.7518 12.8429 14.7137 12.8602 14.6832 12.893C14.5821 13.0058 14.7347 13.1736 14.7995 13.2353L15.8492 14.4069C15.8483 14.4175 15.8349 14.4416 15.8102 14.4782C15.772 14.5313 15.6452 14.6595 15.2638 14.7077C15.2181 14.7135 15.1704 14.7164 15.1246 14.7164C14.7318 14.7164 14.3123 14.5236 14.0958 14.4079C14.194 14.1976 14.2455 13.9662 14.2455 13.7348C14.2455 12.8602 13.5438 12.1496 12.679 12.1486C12.6609 12.1486 12.6409 12.1486 12.6228 12.1496C12.6504 11.7504 12.5951 10.9944 11.8276 10.6617C11.6064 10.5653 11.3861 10.5152 11.1726 10.5152C11.0048 10.5152 10.8436 10.5441 10.692 10.6029C10.5328 10.2905 10.2687 10.0629 9.92544 9.94433C9.73475 9.8778 9.54597 9.84405 9.3629 9.84405C9.0435 9.84405 8.74888 9.93951 8.48668 10.1275C8.23497 9.81126 7.8555 9.6242 7.456 9.6242C7.10608 9.6242 6.76951 9.76594 6.52066 10.0157C6.19363 9.76305 4.89693 8.92994 1.42541 8.1325C1.25951 8.0949 0.882897 7.98594 0.646441 7.91554C0.971568 6.33996 1.96221 4.90033 3.43052 3.71912L3.43529 3.71719ZM9.87491 12.8564L9.83772 12.8226H9.79959C9.76908 12.8226 9.73666 12.8352 9.69375 12.866C9.51641 12.9923 9.34765 13.0531 9.17508 13.0531C9.07973 13.0531 8.98248 13.0338 8.88523 12.9962C8.08051 12.6789 8.14344 11.9114 8.18348 11.68C8.1892 11.6327 8.17776 11.5971 8.14821 11.572L8.091 11.5247L8.03761 11.5758C7.88029 11.7292 7.67529 11.8121 7.45981 11.8121C6.9993 11.8121 6.62364 11.4331 6.62459 10.9664C6.62459 10.5007 7.00025 10.1218 7.46172 10.1227C7.87838 10.1227 8.23306 10.439 8.2855 10.8604L8.31411 11.087L8.4371 10.8951C8.45045 10.8729 8.78893 10.3561 9.40962 10.357C9.52785 10.357 9.64989 10.3763 9.77289 10.4149C10.2677 10.5672 10.3516 11.0214 10.364 11.2104C10.3726 11.3203 10.4508 11.3261 10.4651 11.3261C10.508 11.3261 10.5395 11.2991 10.5614 11.275C10.6548 11.1766 10.8579 11.0127 11.1764 11.0127C11.3222 11.0127 11.4767 11.0484 11.6369 11.1178C12.4235 11.4592 12.0669 12.4697 12.0631 12.4803C11.9954 12.6481 11.9925 12.7214 12.0564 12.7648L12.0869 12.7792H12.1098C12.1451 12.7792 12.1889 12.7638 12.2624 12.7387C12.3691 12.7011 12.5303 12.6452 12.6819 12.6452C13.274 12.652 13.7555 13.1399 13.7555 13.7309C13.7555 14.3288 13.273 14.8148 12.6809 14.8148C12.1022 14.8148 11.6312 14.3587 11.6102 13.7792C11.6083 13.729 11.6035 13.5979 11.4929 13.5979C11.4481 13.5979 11.4081 13.6258 11.3632 13.6673C11.2355 13.7869 11.0734 13.9074 10.8369 13.9074C10.7292 13.9074 10.6129 13.8823 10.4899 13.8312C9.87872 13.5805 9.87014 13.1563 9.89493 12.9856C9.9016 12.9403 9.90351 12.893 9.873 12.8554L9.87491 12.8564ZM13.6954 17.5696C6.42436 17.5696 0.530119 13.756 0.530119 9.0524C0.530119 8.8634 0.543468 8.67537 0.561584 8.48927C0.619744 8.50374 1.19754 8.64259 1.31672 8.67055C4.86261 9.46703 6.0344 10.2953 6.23272 10.4525C6.16598 10.6154 6.1307 10.7909 6.1307 10.9684C6.1307 11.7099 6.72661 12.3135 7.45886 12.3135C7.54086 12.3135 7.62285 12.3058 7.70294 12.2904C7.81354 12.8361 8.16632 13.2498 8.70502 13.4619C8.86234 13.5227 9.02157 13.5545 9.17889 13.5545C9.27995 13.5545 9.38197 13.542 9.48113 13.5169C9.58125 13.7724 9.80435 14.0916 10.3059 14.297C10.4813 14.3683 10.6567 14.4059 10.8274 14.4059C10.9666 14.4059 11.103 14.3809 11.2326 14.3326C11.4729 14.9237 12.044 15.3162 12.6809 15.3162C13.1033 15.3162 13.5085 15.1426 13.8041 14.835C14.0568 14.9777 14.5907 15.2352 15.1303 15.2361C15.1999 15.2361 15.2648 15.2313 15.3315 15.2236C15.8674 15.1551 16.1162 14.943 16.2306 14.7781C16.2516 14.7492 16.2697 14.7183 16.2859 14.6865C16.4118 14.7232 16.551 14.7531 16.7112 14.754C17.0039 14.754 17.2842 14.6528 17.5683 14.4445C17.8477 14.241 18.046 13.9489 18.0746 13.7001C18.0746 13.6972 18.0746 13.6933 18.0756 13.6895C18.1699 13.7088 18.2662 13.7184 18.3625 13.7184C18.6638 13.7184 18.9604 13.6239 19.2435 13.4359C19.7899 13.0743 19.8843 12.6008 19.8757 12.2913C19.972 12.3116 20.0692 12.3222 20.1665 12.3222C20.4487 12.3222 20.7271 12.2364 20.9912 12.0657C21.3297 11.8468 21.5337 11.5112 21.5652 11.1217C21.5852 10.8565 21.5204 10.5885 21.3831 10.359C22.2965 9.96072 24.3845 9.19029 26.8435 8.63006C26.854 8.77084 26.8597 8.91258 26.8597 9.05529C26.8597 13.7589 20.9655 17.5725 13.6954 17.5725V17.5696Z" fill="#0A0080"/>
<path d="M74.3245 2.78765C73.8277 2.15703 73.0726 1.84269 72.06 1.84269C71.0475 1.84269 70.2933 2.158 69.7965 2.78765C69.2988 3.41731 69.05 4.16171 69.05 5.02086C69.05 5.88001 69.2988 6.64177 69.7965 7.26371C70.2933 7.88372 71.0484 8.19421 72.06 8.19421C73.0716 8.19421 73.8277 7.88372 74.3245 7.26371C74.8222 6.64177 75.0701 5.89544 75.0701 5.02086C75.0701 4.14628 74.8222 3.41731 74.3245 2.78765ZM73.0926 6.40167C72.8514 6.72469 72.5063 6.88765 72.0543 6.88765C71.6024 6.88765 71.2572 6.72469 71.0141 6.40167C70.771 6.07865 70.6499 5.61773 70.6499 5.02086C70.6499 4.42399 70.771 3.965 71.0141 3.64294C71.2572 3.32088 71.6043 3.15985 72.0543 3.15985C72.5043 3.15985 72.8505 3.32088 73.0926 3.64294C73.3339 3.965 73.4549 4.42495 73.4549 5.02086C73.4549 5.61677 73.3339 6.07865 73.0926 6.40167Z" fill="#0A0080"/>
<path d="M61.6169 2.26021C61.1125 2.00179 60.5357 1.87161 59.8864 1.87161C58.8881 1.87161 58.1835 2.13485 57.7725 2.66037C57.5142 2.9969 57.3702 3.42695 57.3359 3.94958H58.828C58.8642 3.71816 58.9377 3.53591 59.0483 3.40092C59.2018 3.21867 59.464 3.12707 59.833 3.12707C60.1629 3.12707 60.4127 3.17335 60.5843 3.26689C60.754 3.35945 60.8398 3.52916 60.8398 3.77408C60.8398 3.97561 60.7292 4.12218 60.5071 4.2186C60.3831 4.27357 60.1772 4.31889 59.8892 4.35553L59.36 4.4211C58.7594 4.49824 58.3036 4.62648 57.9947 4.80583C57.4303 5.13464 57.148 5.66691 57.148 6.40167C57.148 6.96769 57.3225 7.40546 57.6743 7.71402C58.0243 8.02354 58.4695 8.15275 59.0073 8.17782C62.3796 8.33114 62.3424 6.38046 62.373 5.97547V3.73166C62.373 3.01136 62.1203 2.52055 61.6169 2.26021ZM60.8331 5.66595C60.8226 6.18857 60.6749 6.54824 60.3907 6.74591C60.1056 6.94358 59.7958 7.04193 59.4583 7.04193C59.2447 7.04193 59.0635 6.98118 58.9148 6.86355C58.766 6.74494 58.6917 6.55113 58.6917 6.28403C58.6917 5.98511 58.8137 5.7643 59.0569 5.62063C59.2008 5.53674 59.4373 5.46538 59.7672 5.40849L60.119 5.34196C60.2944 5.30821 60.4317 5.27157 60.5328 5.233C60.6348 5.19635 60.733 5.14621 60.8312 5.08354V5.66498L60.8331 5.66595Z" fill="#0A0080"/>
<path d="M53.9263 3.20807C54.3125 3.20807 54.5947 3.3286 54.7787 3.56966C54.9036 3.74708 54.9818 3.94861 55.0123 4.17135H56.6761C56.5855 3.32185 56.2918 2.7298 55.7951 2.39424C55.2974 2.05964 54.6605 1.89186 53.8815 1.89186C52.9652 1.89186 52.2463 2.17632 51.7258 2.74426C51.2052 3.31317 50.9439 4.10868 50.9439 5.13079C50.9439 6.03525 51.1794 6.77387 51.6514 7.34182C52.1233 7.90976 52.8585 8.19421 53.8577 8.19421C54.8569 8.19421 55.6139 7.85383 56.1231 7.17114C56.4425 6.7488 56.6217 6.30042 56.6589 5.82698H55.0009C54.9665 6.14036 54.8702 6.39588 54.7091 6.59259C54.5499 6.78834 54.2801 6.88765 53.8987 6.88765C53.3619 6.88765 52.9958 6.63984 52.8022 6.14325C52.6954 5.87808 52.6411 5.52806 52.6411 5.09125C52.6411 4.65444 52.6954 4.26778 52.8022 3.98911C53.0043 3.46938 53.379 3.20807 53.9263 3.20807Z" fill="#0A0080"/>
<path d="M50.4977 1.89186C47.0796 1.89186 47.2827 4.95143 47.2827 4.95143V8.06018H48.8339V5.14525C48.8339 4.66698 48.894 4.31406 49.0113 4.08361C49.2239 3.67573 49.6405 3.47131 50.2603 3.47131C50.307 3.47131 50.368 3.4742 50.4434 3.47806C50.5187 3.48191 50.6045 3.48866 50.7037 3.50023V1.9044C50.635 1.89958 50.5902 1.89765 50.5711 1.89476C50.5511 1.89283 50.5273 1.89186 50.4977 1.89186Z" fill="#0A0080"/>
<path d="M46.0394 3.05089C45.7714 2.64977 45.4311 2.35567 45.0211 2.1686C44.6101 1.98347 44.1487 1.8909 43.6367 1.8909C42.7728 1.8909 42.0711 2.16571 41.5295 2.7163C40.9889 3.26785 40.7172 4.05854 40.7172 5.09125C40.7172 6.19339 41.0175 6.98793 41.6172 7.47681C42.216 7.96472 42.9082 8.21061 43.692 8.21061C44.6416 8.21061 45.3805 7.92037 45.9078 7.34085C46.1929 7.03615 46.3712 6.73434 46.4465 6.43638H44.8008C44.736 6.53088 44.6664 6.61091 44.5892 6.67359C44.3699 6.85583 44.0724 6.91176 43.7225 6.91176C43.3916 6.91176 43.1313 6.86162 42.8968 6.71216C42.5097 6.4711 42.2913 6.06418 42.2685 5.46731H46.5599C46.5657 4.9524 46.5495 4.55802 46.5085 4.28417C46.4379 3.81747 46.2796 3.4067 46.0394 3.05282V3.05089ZM42.3066 4.43749C42.3619 4.04986 42.5001 3.74323 42.7166 3.51566C42.9349 3.28906 43.241 3.17528 43.6367 3.17528C43.9999 3.17528 44.305 3.28231 44.551 3.49734C44.7961 3.71141 44.9324 4.02575 44.961 4.43749H42.3066Z" fill="#0A0080"/>
<path d="M37.6356 1.87065C36.9158 1.87065 36.2932 2.18982 35.8746 2.70087C35.477 2.18982 34.8649 1.87065 34.1126 1.87065C32.5976 1.87065 31.6213 2.99593 31.6213 4.4857V8.05922H33.039V4.45195C33.039 3.79337 33.4795 3.33824 34.1136 3.33824C35.048 3.33824 35.1443 4.12218 35.1443 4.45195V8.05922H36.562V4.45195C36.562 3.79337 37.013 3.33824 37.6356 3.33824C38.57 3.33824 38.6778 4.12218 38.6778 4.45195V8.05922H40.0936V4.4857C40.0936 2.94965 39.1831 1.87065 37.6356 1.87065Z" fill="#0A0080"/>
<path d="M67.0258 1.10793L67.0239 2.78862C66.8513 2.50706 66.6263 2.28721 66.3489 2.13003C66.0724 1.9719 65.7549 1.89186 65.3973 1.89186C64.6222 1.89186 64.0053 2.18403 63.5419 2.76547C63.0785 3.34885 62.8468 4.18967 62.8468 5.206C62.8468 6.08829 63.0823 6.81148 63.5524 7.3746C64.0224 7.93676 64.9444 8.18361 65.7634 8.18361C68.619 8.18361 68.5857 5.70741 68.5857 5.70741V0.00771382C68.5857 0.00771382 67.0258 -0.161031 67.0258 1.10793ZM66.7274 6.41517C66.5014 6.74301 66.1687 6.90694 65.7329 6.90694C65.2972 6.90694 64.9721 6.74109 64.7575 6.41228C64.543 6.08154 64.4362 5.60134 64.4362 5.05172C64.4362 4.54066 64.5411 4.11446 64.7518 3.77023C64.9625 3.42599 65.2924 3.25339 65.7434 3.25339C66.039 3.25339 66.2983 3.34788 66.5224 3.53688C66.8857 3.85026 67.0687 4.41338 67.0687 5.14139C67.0687 5.66209 66.9543 6.08732 66.7274 6.41517Z" fill="#0A0080"/>
<path d="M34.8983 10.4573C33.6206 10.3966 32.9761 10.7042 32.5556 11.0291C31.975 11.4775 31.6213 12.1409 31.6213 13.2006V18.6496H32.3726C32.5738 18.6496 32.7749 18.5792 32.9227 18.4413C33.0886 18.287 33.1716 18.098 33.1716 17.8763V15.8398C33.3546 16.1589 33.5959 16.3932 33.901 16.5456C34.1899 16.6816 34.5236 16.75 34.903 16.75C35.6172 16.75 36.2036 16.4627 36.6583 15.8851C37.1141 15.2921 37.342 14.5207 37.342 13.5651C37.342 12.6095 37.1265 11.9288 36.6097 11.2924C36.1921 10.7774 35.5562 10.4872 34.8983 10.4573ZM35.4274 14.9295C35.1996 15.2487 34.8878 15.4078 34.4931 15.4078C34.0678 15.4078 33.7408 15.2496 33.5129 14.9295C33.285 14.6412 33.1706 14.2111 33.1706 13.6326C33.1706 13.0126 33.2764 12.5565 33.4891 12.2682C33.7179 11.9509 34.0373 11.7899 34.4473 11.7899C34.8573 11.7899 35.1996 11.95 35.4274 12.2682C35.6563 12.5873 35.7697 13.0415 35.7697 13.6326C35.7697 14.1803 35.6563 14.6103 35.4274 14.9295Z" fill="#0A0080"/>
<path d="M48.2199 11.0195C47.6926 10.6155 47.154 10.4043 46.2281 10.4294C45.288 10.4554 44.6044 10.7215 44.1792 11.3039C43.7539 11.8873 43.5423 12.6491 43.5423 13.5873C43.5423 14.3905 43.7025 15.0375 44.0228 15.5322C44.3441 16.0239 44.7284 16.3614 45.1765 16.5417C45.6227 16.724 46.0746 16.7616 46.5304 16.6565C46.9852 16.5495 47.3475 16.2862 47.6164 15.8619V16.2467C47.5859 16.7317 47.4705 17.0952 47.2703 17.3382C47.0672 17.5793 46.8441 17.7278 46.5971 17.7808C46.353 17.8329 46.1051 17.804 45.8601 17.6892C45.6132 17.5764 45.4311 17.4125 45.3119 17.2013H43.6777C44.101 18.4876 44.8609 19.0556 46.2301 19.1558C48.4382 19.3169 49.1419 17.426 49.14 16.4058V13.1996C49.14 12.1399 48.7987 11.4611 48.2218 11.0175L48.2199 11.0195ZM47.5706 14.1687C47.5105 14.5236 47.4142 14.7858 47.2789 14.9517C46.9957 15.3451 46.5542 15.4849 45.9593 15.3731C45.3615 15.2583 45.063 14.6788 45.063 13.6345C45.063 13.1495 45.1517 12.7175 45.3319 12.3376C45.5112 11.9606 45.8534 11.7697 46.3607 11.7697C46.7335 11.7697 47.0176 11.9066 47.2112 12.1785C47.4057 12.4514 47.5296 12.7619 47.5811 13.1109C47.6335 13.459 47.6288 13.8119 47.5697 14.1678L47.5706 14.1687Z" fill="#0A0080"/>
<path d="M42.2151 10.8604C41.7107 10.6029 41.1339 10.4718 40.4846 10.4718C39.4863 10.4718 38.7826 10.735 38.3727 11.2615C38.1152 11.5971 37.9703 12.0271 37.936 12.5497H39.4281C39.4644 12.3193 39.5378 12.1361 39.6474 12.002C39.8009 11.8198 40.0631 11.7272 40.4321 11.7272C40.763 11.7272 41.0128 11.7735 41.1834 11.8671C41.3531 11.9596 41.438 12.1293 41.438 12.3742C41.438 12.5748 41.3274 12.7233 41.1052 12.8178C40.9813 12.8728 40.7754 12.9181 40.4874 12.9547L39.9592 13.0193C39.3585 13.0965 38.9018 13.2247 38.5948 13.4041C38.0294 13.7329 37.7481 14.2642 37.7481 14.9989C37.7481 15.565 37.9226 16.0027 38.2744 16.3113C38.6244 16.6208 39.0696 16.75 39.6083 16.7751C42.9797 16.9274 42.9416 14.9777 42.9721 14.5727V12.3289C42.9721 11.6096 42.7213 11.1198 42.217 10.8594L42.2151 10.8604ZM41.4313 14.2651C41.4218 14.7887 41.2731 15.1474 40.9899 15.3451C40.7058 15.5428 40.3949 15.6411 40.0574 15.6411C39.8438 15.6411 39.6636 15.5804 39.5139 15.4627C39.3652 15.3441 39.2908 15.1513 39.2908 14.8842C39.2908 14.5853 39.4129 14.3645 39.656 14.2218C39.8009 14.1379 40.0364 14.0665 40.3663 14.0096L40.7191 13.944C40.8945 13.9103 41.0328 13.8746 41.1319 13.8361C41.234 13.7984 41.3331 13.7483 41.4313 13.6856V14.2671V14.2651Z" fill="#0A0080"/>
<path d="M55.0028 11.355C54.5051 10.7244 53.7499 10.4091 52.7374 10.4091C51.7248 10.4091 50.9716 10.7234 50.4748 11.355C49.9771 11.9847 49.7283 12.7281 49.7283 13.5873C49.7283 14.4464 49.9771 15.2072 50.4748 15.8292C50.9716 16.4482 51.7267 16.7587 52.7374 16.7587C53.748 16.7587 54.5041 16.4482 55.0028 15.8292C55.4995 15.2072 55.7474 14.4609 55.7474 13.5873C55.7474 12.7137 55.4995 11.9847 55.0028 11.355ZM53.77 14.9671C53.5287 15.2911 53.1836 15.4541 52.7336 15.4541C52.2835 15.4541 51.9365 15.2911 51.6933 14.9671C51.4493 14.6441 51.3282 14.1841 51.3282 13.5873C51.3282 12.9904 51.4493 12.5314 51.6933 12.2094C51.9355 11.8873 52.2826 11.7263 52.7336 11.7263C53.1845 11.7263 53.5297 11.8873 53.77 12.2094C54.0112 12.5314 54.1313 12.9904 54.1313 13.5873C54.1313 14.1841 54.0112 14.6441 53.77 14.9671Z" fill="#0A0080"/>
</svg>
