<?xml version="1.0" encoding="utf-8"?>
<svg xmlns="http://www.w3.org/2000/svg" height="24px" viewBox="0 -1008.951 1100.735 923.286" width="24px" fill="#757575" xmlns:bx="https://boxy-svg.com">
  <defs>
    <bx:guide x="135.122" y="-310.25" angle="90"/>
    <bx:guide x="271.983" y="-789.712" angle="90"/>
  </defs>
  <path d="M 326.842 -309.71 L 326.842 -389.71 L 566.842 -389.71 L 566.842 -309.71 L 326.842 -309.71 Z M 326.842 -509.71 L 326.842 -589.71 L 806.842 -589.71 L 806.842 -509.71 L 326.842 -509.71 Z M 326.842 -709.71 L 326.842 -789.71 L 1046.84 -789.71 L 1046.84 -709.71 L 326.842 -709.71 Z" style="fill: rgb(30, 30, 30); transform-origin: 686.841px -549.71px;"/>
  <path d="M 117.975 -310.25 L 117.101 -676.44 L 84.162 -643.42 L 42.04 -685.44 L 146.844 -790.49 L 252.149 -685.44 L 209.477 -643.42 L 177.133 -675.69 L 178.006 -310.25 L 117.975 -310.25 Z" style="stroke-width: 1; transform-box: fill-box; transform-origin: 50% 50%; fill: rgb(30, 30, 30);" transform="matrix(-1, 0, 0, -1, 0.000064, 0.000045)"/>
</svg>