<?xml version="1.0" encoding="utf-8"?>
<svg xmlns="http://www.w3.org/2000/svg" height="24px" viewBox="0 -1008.951 1100.735 923.286" width="24px" fill="#757575" xmlns:bx="https://boxy-svg.com">
  <defs>
    <bx:guide x="135.122" y="-310.25" angle="90"/>
    <bx:guide x="271.983" y="-789.712" angle="90"/>
  </defs>
  <path d="M 326.842 -310.49 L 326.842 -390.49 L 566.842 -390.49 L 566.842 -310.49 L 326.842 -310.49 Z M 326.842 -510.49 L 326.842 -590.49 L 806.842 -590.49 L 806.842 -510.49 L 326.842 -510.49 Z M 326.842 -710.49 L 326.842 -790.49 L 1046.84 -790.49 L 1046.84 -710.49 L 326.842 -710.49 Z" style="transform-origin: 686.841px -550.49px; fill: rgb(30, 30, 30);"/>
  <path d="M 117.975 -789.95 L 117.101 -423.76 L 84.162 -456.78 L 42.04 -414.76 L 146.844 -309.71 L 252.149 -414.76 L 209.477 -456.78 L 177.133 -424.51 L 178.006 -789.95 L 117.975 -789.95 Z" style="stroke-width: 1; transform-origin: 147.095px -549.83px; fill: rgb(30, 30, 30);" transform="matrix(-1, 0, 0, -1, 0.000058, 0.000019)"/>
</svg>