<svg width="133" height="27" viewBox="0 0 133 27" fill="none" xmlns="http://www.w3.org/2000/svg">
<g clip-path="url(#clip0_1635_2841)">
<path d="M127.647 8.82812H4.54102V27.0009H127.647V8.82812Z" fill="white"/>
<path d="M69.2705 19.9655C69.2705 20.9233 70.1407 21.3723 71.011 21.3723C73.5636 21.3723 74.3468 19.5464 74.898 17.3613H73.7087C72.0262 17.3913 69.2705 17.6607 69.2705 19.9655Z" fill="#23234B"/>
<path d="M103.934 12.5117C101.236 12.5117 99.873 15.5948 99.873 18.0493C99.873 19.8452 100.598 21.2222 102.542 21.2222C105.181 21.2222 106.516 18.0493 106.516 15.7445C106.516 13.9784 105.936 12.5117 103.934 12.5117Z" fill="#23234B"/>
<path d="M0 6.07681V26.9998H49.6901L52.7069 11.8538C52.8229 11.1953 52.9389 10.6565 52.997 10.0878H56.2458L55.8687 11.8838H55.9267C56.913 10.447 58.1603 9.78848 59.8718 9.78848C63.1496 9.78848 64.687 12.0933 64.687 15.2961C64.687 19.5466 62.4244 23.9766 57.8412 23.9766C56.3328 23.9766 54.7664 23.4378 54.2153 21.5521H54.1573L53.084 26.9998H80.2351L80.6122 25.7127C81.9756 26.2814 83.2519 26.7604 84.7313 26.7604C88.3573 26.7604 88.8794 24.1562 89.6916 21.0731H89.6336C88.7634 22.7194 87.1099 23.6473 85.2244 23.6473C82.0336 23.6473 80.6412 20.8935 80.6412 17.9003C80.6412 13.8593 83.0489 9.75854 87.313 9.75854C89.0534 9.75854 90.5038 10.6266 91.316 12.0634L91.6931 10.0878H94.971C94.855 10.447 94.7099 11.1055 94.5359 11.9736L92.4473 22.1507C92.0702 24.0963 91.4901 25.7127 90.5618 26.9699H133V6.04688H0V6.07681ZM76.8702 23.6473H73.9985L74.3466 21.582H74.2886C73.1283 23.1086 71.9389 23.9766 70.0534 23.9766C67.6748 23.9766 65.9924 22.5997 65.9924 20.1153C65.9924 15.6254 70.8366 15.2961 74.0565 15.2961H75.2458C75.3618 14.9369 75.3618 14.5179 75.3618 14.1287C75.3618 12.7518 73.9405 12.3627 72.7221 12.3627C71.2137 12.3627 69.7634 12.7518 68.4 13.4103L68.8931 10.5967C70.3435 10.0579 71.8229 9.78848 73.3603 9.78848C76 9.78848 78.4657 10.7763 78.4657 13.9791C78.4657 15.775 77.1893 21.1031 76.8702 23.6473ZM102.252 23.9766C98.5389 23.9766 96.2763 21.6119 96.2763 17.7805C96.2763 13.2607 99.6412 9.78848 104.05 9.78848C107.589 9.78848 110.084 12.0035 110.084 15.7451C110.113 20.5044 106.922 23.9766 102.252 23.9766ZM121.368 12.9913C120.469 12.662 119.54 12.3627 118.554 12.3627C117.539 12.3627 116.263 12.662 116.263 13.7396C116.263 15.4458 120.701 16.0744 120.701 19.3969C120.701 22.929 117.713 23.9766 114.783 23.9766C113.42 23.9766 112.027 23.7671 110.78 23.1684L111.534 20.3547C112.492 20.9235 113.478 21.4024 114.812 21.4024C115.973 21.4024 117.162 21.0133 117.162 19.9058C117.162 17.7207 112.724 17.5111 112.724 14.0988C112.724 10.9259 115.711 9.78848 118.409 9.78848C119.656 9.78848 120.933 10.0279 122.122 10.3273L121.368 12.9913Z" fill="#23234B"/>
<path d="M84.2959 17.8703C84.2959 19.5166 84.9341 20.8935 86.4715 20.8935C89.1982 20.8935 90.3295 17.9302 90.3295 15.326C90.3295 13.7396 89.4303 12.4824 87.8638 12.4824C85.3692 12.5124 84.2959 15.8648 84.2959 17.8703Z" fill="#23234B"/>
<path d="M57.3485 21.2222C60.2203 21.2222 61.1195 17.5404 61.1195 15.4152C61.1195 13.7689 60.3073 12.5117 58.7119 12.5117C56.3913 12.5117 55.0859 15.6846 55.0859 18.0493C55.1149 19.7854 55.6951 21.2222 57.3485 21.2222Z" fill="#23234B"/>
<path d="M132.933 0H0V6.07635H47.1409L45.953 11.7037C44.8809 10.4465 43.5771 9.78802 41.8966 9.78802C37.4346 9.78802 35.2905 14.2779 35.2905 18.3488C35.2905 21.2822 36.6812 23.9762 39.8104 23.9762C41.8097 23.9762 43.0845 23.138 44.0986 21.6713H44.1566L43.8378 23.6768H47.025C47.1119 22.9884 47.3147 21.821 47.5176 20.6835L50.5888 6.10628H132.991L132.933 0ZM40.9404 21.2223C39.2599 21.2223 38.8543 19.3665 38.8543 18.0195C38.8543 15.9841 40.0133 12.5119 42.4471 12.5119C44.1855 12.5119 44.9099 14.1582 44.9099 15.7147C44.9099 18.2291 43.4322 21.2223 40.9404 21.2223Z" fill="#C7C933"/>
<path d="M20.0504 9.78711C18.4568 9.78711 16.7763 11.1939 16.1678 12.6606H16.1099L16.5735 10.1164H13.2994C13.1835 10.745 13.0966 11.3436 12.9807 11.9423L10.6338 23.6759H14.0527L15.2696 17.5996C15.7043 15.4145 16.8632 13.1695 19.2971 13.1695C19.7317 13.1695 20.2242 13.2593 20.6009 13.379L21.3252 9.93677C20.9486 9.78711 20.485 9.78711 20.0504 9.78711Z" fill="#C7C933"/>
<path d="M28.3367 9.78711C24.0195 9.78711 20.8613 13.828 20.8613 18.0485C20.8613 22.0895 23.4111 23.9752 27.1777 23.9752C28.5684 23.9752 30.0461 23.646 31.35 23.197L31.7846 20.4132C30.5097 21.0119 29.1479 21.401 27.7572 21.401C25.4103 21.401 24.1064 20.4731 24.1064 17.9887H33.3492C33.552 17.0009 33.6679 15.9832 33.6679 14.9655C33.7258 11.4933 31.5818 9.78711 28.3367 9.78711ZM30.3938 15.5342H24.599C25.2654 13.6784 26.1926 12.3613 28.3077 12.3613C29.7274 12.3613 30.4807 13.1695 30.4807 14.6362C30.4518 14.9355 30.4228 15.2349 30.3938 15.5342Z" fill="#C7C933"/>
</g>
<defs>
<clipPath id="clip0_1635_2841">
<rect width="133" height="27" fill="white"/>
</clipPath>
</defs>
</svg>
