<svg width="43" height="26" viewBox="0 0 43 26" fill="none" xmlns="http://www.w3.org/2000/svg">
<path d="M0 2C0 0.89543 0.895431 0 2 0H41C42.1046 0 43 0.895431 43 2V24C43 25.1046 42.1046 26 41 26H2C0.895432 26 0 25.1046 0 24V2Z" fill="#EDEDED"/>
<path d="M5 9C5 8.44772 5.44772 8 6 8H11C11.5523 8 12 8.44772 12 9V12C12 12.5523 11.5523 13 11 13H6C5.44772 13 5 12.5523 5 12V9Z" fill="#D9D9D9"/>
<path d="M2 18C2 17.4477 2.44772 17 3 17H8C8.55228 17 9 17.4477 9 18C9 18.5523 8.55228 19 8 19H3C2.44772 19 2 18.5523 2 18Z" fill="#D9D9D9"/>
<path d="M13 18C13 17.4477 13.4477 17 14 17H19C19.5523 17 20 17.4477 20 18C20 18.5523 19.5523 19 19 19H14C13.4477 19 13 18.5523 13 18Z" fill="#D9D9D9"/>
<path d="M24 18C24 17.4477 24.4477 17 25 17H30C30.5523 17 31 17.4477 31 18C31 18.5523 30.5523 19 30 19H25C24.4477 19 24 18.5523 24 18Z" fill="#D9D9D9"/>
<path d="M33 18C33 17.4477 33.4477 17 34 17H39C39.5523 17 40 17.4477 40 18C40 18.5523 39.5523 19 39 19H34C33.4477 19 33 18.5523 33 18Z" fill="#D9D9D9"/>
</svg>
