<?xml version="1.0" encoding="utf-8"?>
<svg xmlns="http://www.w3.org/2000/svg" height="24px" viewBox="0 -1008.951 595.805 923.286" width="24px" fill="#757575" xmlns:bx="https://boxy-svg.com">
  <defs>
    <bx:guide x="135.122" y="-310.25" angle="90"/>
    <bx:guide x="271.983" y="-789.712" angle="90"/>
  </defs>
  <path d="M 117.975 -789.95 L 117.101 -423.76 L 84.162 -456.78 L 42.04 -414.76 L 146.844 -309.71 L 252.149 -414.76 L 209.477 -456.78 L 177.133 -424.51 L 178.006 -789.95 L 117.975 -789.95 Z" style="stroke-width: 1; transform-origin: 147.095px -549.83px; fill: rgb(30, 30, 30);" transform="matrix(-1, 0, 0, -1, 0.000058, 0.000019)"/>
  <path d="M 300.5 -310.25 L 300.5 -352.45 L 419.535 -492.38 L 305.214 -492.38 L 305.214 -532.35 L 471.391 -532.35 L 471.391 -490.15 L 353.536 -350.22 L 472.569 -350.22 L 472.569 -310.25 L 300.5 -310.25 Z" style="stroke-width: 1.147; fill: rgb(30, 30, 30);"/>
  <path d="M 293.304 -575.79 L 369.776 -789.71 L 413.618 -789.71 L 490.091 -575.79 L 448.287 -575.79 L 430.953 -627.17 L 352.443 -627.17 L 336.13 -575.79 L 293.304 -575.79 Z M 364.677 -663.52 L 417.694 -663.52 L 393.222 -743.73 L 390.171 -743.73 L 364.677 -663.52 Z" style="stroke-width: 1.147; fill: rgb(30, 30, 30);"/>
</svg>